<svg id="Capa_1" data-name="Capa 1" xmlns="http://www.w3.org/2000/svg" viewBox="0 0 378.37 378.4"><defs><style>.cls-1{fill:#fff;}</style></defs><title>chat-icon</title><path class="cls-1" d="M322.85,55.44a189.08,189.08,0,0,0-267.52,0c-69.12,69.12-73.92,179.76-11.92,254.4-6.08,12.24-15.84,26.48-30.32,33.6a17.75,17.75,0,0,0,5.12,33.44,97.77,97.77,0,0,0,15,1.12c16.72,0,41.36-3.92,66.56-22.08A189.14,189.14,0,0,0,322.85,55.44ZM120.61,208.84a19.64,19.64,0,1,1,19.64-19.64A19.64,19.64,0,0,1,120.61,208.84Zm68.48,0a19.64,19.64,0,1,1,19.64-19.64A19.64,19.64,0,0,1,189.09,208.84Zm68.48,0a19.64,19.64,0,1,1,19.64-19.64A19.64,19.64,0,0,1,257.57,208.84Z"/></svg>