<svg id="Layer_1" data-name="Layer 1" xmlns="http://www.w3.org/2000/svg" viewBox="0 0 407.44 136.81"><defs><style>.cls-1{fill:#fff;}.cls-2{fill:#ff4d47;}</style></defs><title>logo</title><path class="cls-1" d="M93.79,42.45a27.55,27.55,0,0,1,21.55,9.89q8.7,9.9,8.69,32.74v28.15a46.91,46.91,0,0,1-.24,5.55,13.58,13.58,0,0,1-1.45,4.26,6.76,6.76,0,0,1-4.27,3.38,28.16,28.16,0,0,1-8.2,1,25.31,25.31,0,0,1-8-1,7,7,0,0,1-4.26-3.46,13.67,13.67,0,0,1-1.45-4.26,46.91,46.91,0,0,1-.24-5.55V84.92q0-14-10-14-5.62,0-7.64,3.7t-2,10.46v28.15a46.73,46.73,0,0,1-.24,5.63A12.83,12.83,0,0,1,74.48,123a7.06,7.06,0,0,1-4.34,3.38,28.2,28.2,0,0,1-8.2,1,25.37,25.37,0,0,1-8-1,7,7,0,0,1-4.26-3.46,13.93,13.93,0,0,1-1.45-4.26,46.91,46.91,0,0,1-.24-5.55V84.92q0-14-10-14-9.64,0-9.65,14v28.47a46.91,46.91,0,0,1-.24,5.55,12.07,12.07,0,0,1-1.53,4.18,7.08,7.08,0,0,1-4.34,3.3,28.2,28.2,0,0,1-8.2,1,27.56,27.56,0,0,1-8-1A6.74,6.74,0,0,1,1.69,123a13.91,13.91,0,0,1-1.45-4.18A46.73,46.73,0,0,1,0,113.23V56.6a47.14,47.14,0,0,1,.24-5.55,12.14,12.14,0,0,1,1.53-4.18,7.2,7.2,0,0,1,4.34-3.3,28.32,28.32,0,0,1,8.21-1q7.88,0,10.61,2.9c1.83,1.92,2.74,4.72,2.74,8.36.22-.32.48-.72.8-1.21a34.32,34.32,0,0,1,2.26-2.73,28.49,28.49,0,0,1,3.7-3.54,19.25,19.25,0,0,1,5.07-2.74,17.61,17.61,0,0,1,6.35-1.2q16.41,0,24.45,14a56.5,56.5,0,0,1,4.26-5.06,35.16,35.16,0,0,1,8-5.79A22.32,22.32,0,0,1,93.79,42.45Z"/><path class="cls-1" d="M208.61,42.61a27.57,27.57,0,0,1,8,1A6.74,6.74,0,0,1,220.91,47a13.63,13.63,0,0,1,1.45,4.27,46.83,46.83,0,0,1,.24,5.54v56.31a46.91,46.91,0,0,1-.24,5.55,12.81,12.81,0,0,1-1.45,4.18,6.77,6.77,0,0,1-4.26,3.3,28.28,28.28,0,0,1-8.21,1q-7.23,0-10.21-2.17a8.61,8.61,0,0,1-3.45-6.35q-6,8.52-19.31,8.52-14.49,0-26.39-12.7a42.17,42.17,0,0,1-11.9-29.76q0-16.57,12-29.2t26.3-12.63a25,25,0,0,1,10,1.93,22.14,22.14,0,0,1,6.27,3.62,22.1,22.1,0,0,1,2.9,3.3,9.29,9.29,0,0,1,3.46-6.76Q201,42.61,208.61,42.61Zm-28.8,56.3a12.6,12.6,0,0,0,9.73-4.34,14,14,0,0,0,3.94-9.65,14.78,14.78,0,0,0-3.78-9.66,12.67,12.67,0,0,0-10.21-4.5,13,13,0,0,0-10.22,4.5,14.61,14.61,0,0,0-3.93,9.82,13.32,13.32,0,0,0,4.17,9.57A13.87,13.87,0,0,0,179.81,98.91Z"/><path class="cls-2" d="M253.51,31.19a27.22,27.22,0,0,1-8-1,6.78,6.78,0,0,1-4.26-3.37,13.89,13.89,0,0,1-1.45-4.27,47.39,47.39,0,0,1-.23-5.55,47.62,47.62,0,0,1,.23-5.55A13.05,13.05,0,0,1,241.2,7.3,6.89,6.89,0,0,1,245.46,4a28.28,28.28,0,0,1,8.21-1,27.53,27.53,0,0,1,8,1A6.79,6.79,0,0,1,266,7.38a13.88,13.88,0,0,1,1.44,4.26,46.67,46.67,0,0,1,.25,5.55,46.44,46.44,0,0,1-.25,5.55A13.05,13.05,0,0,1,266,26.93a6.84,6.84,0,0,1-4.27,3.29A27.86,27.86,0,0,1,253.51,31.19Zm-14,25.57a47.31,47.31,0,0,1,.23-5.54A13.1,13.1,0,0,1,241.2,47a6.89,6.89,0,0,1,4.26-3.3,28.32,28.32,0,0,1,8.21-1,25.48,25.48,0,0,1,6.84.8,11.65,11.65,0,0,1,4.18,1.94,7,7,0,0,1,2.09,3.29,14.41,14.41,0,0,1,.8,3.7q.09,1.53.09,4.59v56.3a46.44,46.44,0,0,1-.25,5.55,13,13,0,0,1-1.44,4.18,6.82,6.82,0,0,1-4.27,3.3,28.2,28.2,0,0,1-8.2,1,27.56,27.56,0,0,1-8-1A6.76,6.76,0,0,1,241.2,123a13.91,13.91,0,0,1-1.45-4.18,47.25,47.25,0,0,1-.23-5.63Z"/><path class="cls-2" d="M407.44,62.68a61.52,61.52,0,0,1-5.29,25.43,60.36,60.36,0,0,1-14.66,20.3v26c0,1.18-.23,1.94-.71,2.29a3.18,3.18,0,0,1-2.29-.17q-8.12-3-14.92-6.09t-13.86-6.27a54.47,54.47,0,0,1-10.95,1.06A62.25,62.25,0,0,1,300.45,107,63.55,63.55,0,0,1,287,87.14a60.89,60.89,0,0,1-4.94-24.46A61.09,61.09,0,0,1,287,38.31,62.84,62.84,0,0,1,320.31,5a62.66,62.66,0,0,1,48.82,0A62.54,62.54,0,0,1,402.5,38.31,61.09,61.09,0,0,1,407.44,62.68Zm-33,0a39,39,0,0,0-2-12.8,30.12,30.12,0,0,0-5.82-10.24,27.91,27.91,0,0,0-9.27-6.88,29.24,29.24,0,0,0-12.54-2.57,29.64,29.64,0,0,0-12.71,2.57,27.8,27.8,0,0,0-9.27,6.88A28.84,28.84,0,0,0,317,49.88a40.68,40.68,0,0,0-1.94,12.8A39.81,39.81,0,0,0,317,75.39a29.74,29.74,0,0,0,5.74,10.24,26.18,26.18,0,0,0,9.27,6.89A30.57,30.57,0,0,0,344.76,95a30.15,30.15,0,0,0,12.54-2.47,26.27,26.27,0,0,0,9.27-6.89,31.1,31.1,0,0,0,5.82-10.24A38.2,38.2,0,0,0,374.43,62.68Z"/></svg>