<svg id="Layer_1" data-name="Layer 1" xmlns="http://www.w3.org/2000/svg" viewBox="0 0 343.52 250.96"><defs><style>.cls-1{fill:#fff;}</style></defs><title>mail-icon</title><path class="cls-1" d="M343.44,225.28V25.68A25.71,25.71,0,0,0,317.76,0H25.68A25.71,25.71,0,0,0,0,25.68v199.6A25.71,25.71,0,0,0,25.68,251H317.84a25.71,25.71,0,0,0,25.68-25.68ZM317.6,228.4a10.83,10.83,0,0,1-15.28.4l-96.16-91.36-27,24.16a10.77,10.77,0,0,1-14.4.08l-26.24-23.44L41.84,228.72a10.82,10.82,0,0,1-7.36,2.88,11,11,0,0,1-7.92-3.44A10.84,10.84,0,0,1,27,212.88l95.28-89.2L26.64,38.16A10.82,10.82,0,1,1,41,22l103.52,92.64a16,16,0,0,1,1.76,1.52c0,.08.08.16.16.24l25.44,22.72,130.4-117A10.82,10.82,0,0,1,316.8,38.16L222.24,123l95,90.16A10.84,10.84,0,0,1,317.6,228.4Z"/></svg>