<svg id="Layer_1" data-name="Layer 1" xmlns="http://www.w3.org/2000/svg" viewBox="0 0 378.96 380.88"><defs><style>.cls-1{fill:#fff;}.cls-2{fill:none;}</style></defs><title>phone-icon</title><path class="cls-1" d="M327.93,319.92c-.08,0-.08.08,0,0-3.12,3.36-6.32,6.4-9.76,9.76a210.36,210.36,0,0,0-15.44,16c-8.08,8.64-17.6,12.72-30.08,12.72-1.2,0-2.48,0-3.68-.08-23.76-1.52-45.84-10.8-62.4-18.72A355.37,355.37,0,0,1,88.49,247.12C61.21,214.24,43,183.84,30.89,151.2c-7.44-19.92-10.16-35.44-9-50.08A36.72,36.72,0,0,1,33,77.36L60.25,50.08c3.92-3.68,8.08-5.68,12.16-5.68,5,0,9.12,3,11.68,5.6l.24.24c4.88,4.56,9.52,9.28,14.4,14.32,2.48,2.56,5,5.12,7.6,7.76l21.84,21.84c8.48,8.48,8.48,16.32,0,24.8-2.32,2.32-4.56,4.64-6.88,6.88-6.72,6.88-13.12,13.28-20.08,19.52-.16.16-.32.24-.4.4-6.88,6.88-5.6,13.6-4.16,18.16l.24.72c5.68,13.76,13.68,26.72,25.84,42.16l.08.08c22.08,27.2,45.36,48.4,71,64.64a109.23,109.23,0,0,0,9.84,5.36c2.88,1.44,5.6,2.8,7.92,4.24.32.16.64.4,1,.56a17.34,17.34,0,0,0,7.92,2c6.64,0,10.8-4.16,12.16-5.52L260,250.8c2.72-2.72,7-6,12.08-6s9,3.12,11.52,5.84l44.24,44.24c8.24,8.16,8.24,16.56.08,25Z"/><path class="cls-1" d="M204.57,91a103,103,0,0,1,83.84,83.84,10.73,10.73,0,0,0,10.64,9,14.28,14.28,0,0,0,1.84-.16,10.81,10.81,0,0,0,8.88-12.48A124.49,124.49,0,0,0,208.33,69.76a10.86,10.86,0,0,0-12.48,8.8A10.68,10.68,0,0,0,204.57,91Zm0,0"/><path class="cls-1" d="M378.33,168.08a205,205,0,0,0-167-167,10.78,10.78,0,1,0-3.52,21.28A183.1,183.1,0,0,1,357.05,171.6a10.73,10.73,0,0,0,10.64,9,14.28,14.28,0,0,0,1.84-.16,10.6,10.6,0,0,0,8.8-12.32Zm0,0"/><rect class="cls-2" width="378.96" height="380.88"/></svg>